<svg width="24" height="24" xmlns="http://www.w3.org/2000/svg">
 <g>
  <title>Layer 1</title>
  <path d="m-55.09312,-21.80458l0.56913,0l0.17587,-0.54067l0.17587,0.54067l0.56913,0l-0.46044,0.33415l0.17588,0.54067l-0.46044,-0.33416l-0.46044,0.33416l0.17588,-0.54067l-0.46044,-0.33415z" id="svg_2"/>
  <path d="m-44.2725,-10.06201l0.14324,0l0.04426,-0.04775l0.04426,0.04775l0.14324,0l-0.11588,0.02951l0.04426,0.04775l-0.11588,-0.02951l-0.11588,0.02951l0.04426,-0.04775l-0.11588,-0.02951z" id="svg_3"/>
  <path stroke="#ffc61a" fill-opacity="0" fill="#ffc61a" id="svg_1" d="m1.43772,9.65373l8.06892,0l2.49336,-7.99727l2.49336,7.99727l8.06892,0l-6.52788,4.94253l2.49349,7.99727l-6.52789,-4.94266l-6.52789,4.94266l2.49349,-7.99727l-6.52789,-4.94253z"/>
  <path id="svg_6" d="m-3.35281,3.56761l0.56913,0l0.17587,-0.54067l0.17587,0.54067l0.56913,0l-0.46044,0.33415l0.17588,0.54067l-0.46044,-0.33416l-0.46044,0.33416l0.17588,-0.54067l-0.46044,-0.33415z" fill-opacity="0" stroke="#ffc61a" fill="#ffc61a"/>
  <path id="svg_9" d="m35.76232,13.89053l0.56913,0l0.17587,-0.54067l0.17587,0.54067l0.56913,0l-0.46044,0.33415l0.17588,0.54067l-0.46044,-0.33416l-0.46044,0.33416l0.17588,-0.54067l-0.46044,-0.33415z" stroke="#ffc61a" fill="#ffc61a"/>
  <path id="svg_10" d="m31.28491,9.53749l0.56913,0l0.17587,-0.54067l0.17587,0.54067l0.56913,0l-0.46044,0.33415l0.17588,0.54067l-0.46044,-0.33416l-0.46044,0.33416l0.17588,-0.54067l-0.46044,-0.33415z" stroke="#ffc61a" fill="#ffc61a"/>
  <path id="svg_11" d="m31.03617,13.51741l0.56913,0l0.17587,-0.54067l0.17587,0.54067l0.56913,0l-0.46044,0.33415l0.17588,0.54067l-0.46044,-0.33416l-0.46044,0.33416l0.17588,-0.54067l-0.46044,-0.33415z" stroke="#ffc61a" fill="#ffc61a"/>
  <path id="svg_8" d="m1.28147,9.46972l8.18829,0l2.53024,-8.18825l2.53025,8.18825l8.18828,0l-6.62445,5.06056l2.53037,8.18825l-6.62445,-5.06069l-6.62445,5.06069l2.53037,-8.18825l-6.62445,-5.06056z" stroke="#ffc61a" fill="#ffc61a"/>
 </g>

</svg>